<svg xmlns="http://www.w3.org/2000/svg">
<defs>
<symbol id="i-carnet" viewBox="0 0 24 24"><rect x="5" y="3" width="14" height="18" rx="2"/><path d="M9 3v18M12.5 8h3.5M12.5 11.5h3.5"/></symbol>
<symbol id="i-copains" viewBox="0 0 24 24"><circle cx="9" cy="8" r="3.2"/><path d="M3.5 19c.8-3 3-4.6 5.5-4.6s4.7 1.6 5.5 4.6"/><circle cx="16.5" cy="9" r="2.6"/><path d="M15.6 14.5c2.4-.2 4.3 1.3 4.9 4"/></symbol>
<symbol id="i-plus" viewBox="0 0 24 24"><path d="M12 5v14M5 12h14"/></symbol>
<symbol id="i-minus" viewBox="0 0 24 24"><path d="M5 12h14"/></symbol>
<symbol id="i-une" viewBox="0 0 24 24"><path d="M12 3.5l2.4 5.2 5.6.6-4.2 3.8 1.2 5.6L12 15.9 7 18.7l1.2-5.6L4 9.3l5.6-.6z"/></symbol>
<symbol id="i-user" viewBox="0 0 24 24"><circle cx="12" cy="8.5" r="3.5"/><path d="M5 20c1-3.6 3.8-5.5 7-5.5s6 1.9 7 5.5"/></symbol>
<symbol id="i-search" viewBox="0 0 24 24"><circle cx="11" cy="11" r="6"/><path d="M20 20l-4.5-4.5"/></symbol>
<symbol id="i-clock" viewBox="0 0 24 24"><circle cx="12" cy="12" r="8"/><path d="M12 7.5V12l3 2"/></symbol>
<symbol id="i-level" viewBox="0 0 24 24"><path d="M6 18v-4M12 18v-8M18 18V6"/></symbol>
<symbol id="i-plate" viewBox="0 0 24 24"><circle cx="12" cy="12" r="8"/><circle cx="12" cy="12" r="4"/></symbol>
<symbol id="i-share" viewBox="0 0 24 24"><path d="M12 4v11M8 8l4-4 4 4M5 13v5a2 2 0 0 0 2 2h10a2 2 0 0 0 2-2v-5"/></symbol>
<symbol id="i-back" viewBox="0 0 24 24"><path d="M15 5l-7 7 7 7"/></symbol>
<symbol id="i-more" viewBox="0 0 24 24"><circle cx="5.5" cy="12" r="1.2"/><circle cx="12" cy="12" r="1.2"/><circle cx="18.5" cy="12" r="1.2"/></symbol>
<symbol id="i-timer" viewBox="0 0 24 24"><circle cx="12" cy="13.5" r="7"/><path d="M12 13.5V10M10 3h4M18 6.5l1.2-1.2"/></symbol>
<symbol id="i-check" viewBox="0 0 24 24"><path d="M5 12.5l4.5 4.5L19 7.5"/></symbol>
<symbol id="i-alert" viewBox="0 0 24 24"><circle cx="12" cy="12" r="8.5"/><path d="M12 7.5v5.2M12 16.3v.2"/></symbol>
<symbol id="i-x" viewBox="0 0 24 24"><path d="M6 6l12 12M18 6L6 18"/></symbol>
<symbol id="i-camera" viewBox="0 0 24 24"><path d="M4 8.5A1.5 1.5 0 0 1 5.5 7H8l1.5-2h5L16 7h2.5A1.5 1.5 0 0 1 20 8.5V18a1.5 1.5 0 0 1-1.5 1.5h-13A1.5 1.5 0 0 1 4 18z"/><circle cx="12" cy="13" r="3.5"/></symbol>
<symbol id="i-mic" viewBox="0 0 24 24"><rect x="9" y="3" width="6" height="11" rx="3"/><path d="M6 11a6 6 0 0 0 12 0M12 17v4"/></symbol>
<symbol id="i-link" viewBox="0 0 24 24"><path d="M10 14a4 4 0 0 0 5.7 0l3-3a4 4 0 0 0-5.7-5.7l-1 1M14 10a4 4 0 0 0-5.7 0l-3 3a4 4 0 0 0 5.7 5.7l1-1"/></symbol>
<symbol id="i-pen" viewBox="0 0 24 24"><path d="M4 20l1-4.5L15.5 5a2.1 2.1 0 0 1 3 3L8 18.5z"/><path d="M13.5 7l3 3"/></symbol>
<symbol id="i-cook" viewBox="0 0 24 24"><path d="M4 10h16v6a4 4 0 0 1-4 4H8a4 4 0 0 1-4-4zM2 10h20M9 3c-1 1 1 2 0 4M15 3c-1 1 1 2 0 4"/></symbol>
<symbol id="i-addbook" viewBox="0 0 24 24"><path d="M6 4h12v16l-6-4-6 4z"/><path d="M12 7.5v5M9.5 10h5"/></symbol>
<symbol id="i-bell" viewBox="0 0 24 24"><path d="M6 16v-5a6 6 0 0 1 12 0v5l1.5 2h-15z"/><path d="M10 20.5a2 2 0 0 0 4 0"/></symbol>
<symbol id="i-refresh" viewBox="0 0 24 24"><path d="M19.5 12a7.5 7.5 0 1 1-2.2-5.3"/><path d="M19.5 4.5v4.5H15"/></symbol>
<symbol id="i-lock" viewBox="0 0 24 24"><rect x="5" y="10.5" width="14" height="10" rx="2"/><path d="M8 10.5V8a4 4 0 0 1 8 0v2.5"/></symbol>
<symbol id="i-fridge" viewBox="0 0 24 24"><rect x="6" y="3" width="12" height="18" rx="2"/><path d="M6 10h12M9 6v2M9 13v3"/></symbol>
<symbol id="i-pot" viewBox="0 0 24 24"><path d="M5 11h14v5a4 4 0 0 1-4 4H9a4 4 0 0 1-4-4zM3 11h18M10 8h4"/></symbol>
<symbol id="ill-tarte" viewBox="0 0 320 240"><rect width="320" height="240" fill="#DCE6D4"/><rect x="214" y="150" width="140" height="120" fill="#C7381F" transform="rotate(16 284 210)"/><rect x="214" y="168" width="140" height="8" fill="#F7F2EA" transform="rotate(16 284 210)"/><circle cx="150" cy="120" r="100" fill="#FFFFFF"/><circle cx="150" cy="120" r="80" fill="#B9772E"/><circle cx="150" cy="120" r="70" fill="#E9B85E"/><circle cx="150" cy="120" r="56" fill="none" stroke="#F6DC9A" stroke-width="18" stroke-dasharray="21 5"/><circle cx="150" cy="120" r="31" fill="none" stroke="#F3D28A" stroke-width="16" stroke-dasharray="16 5"/><circle cx="150" cy="120" r="11" fill="#F6DC9A"/></symbol>
<symbol id="ill-veloute" viewBox="0 0 320 240"><rect width="320" height="240" fill="#F7DAD3"/><rect x="-10" y="186" width="340" height="70" fill="#EFC6BC"/><circle cx="160" cy="118" r="96" fill="#2F4B73"/><circle cx="160" cy="118" r="82" fill="#FFFFFF"/><circle cx="160" cy="118" r="72" fill="#E08A2C"/><path d="M122 112c12-26 62-24 64 4s-40 32-48 8 26-22 30-6" fill="none" stroke="#FFF3DC" stroke-width="7" stroke-linecap="round"/><g fill="#4C6B48"><ellipse cx="196" cy="98" rx="5" ry="3"/><ellipse cx="186" cy="150" rx="5" ry="3" transform="rotate(40 186 150)"/><ellipse cx="132" cy="150" rx="5" ry="3"/></g></symbol>
<symbol id="ill-gratin" viewBox="0 0 320 240"><rect width="320" height="240" fill="#EFE4C8"/><rect x="18" y="100" width="40" height="44" rx="12" fill="#9C2A16"/><rect x="262" y="100" width="40" height="44" rx="12" fill="#9C2A16"/><rect x="40" y="44" width="240" height="156" rx="30" fill="#C7381F"/><rect x="56" y="60" width="208" height="124" rx="20" fill="#E8B04F"/><g fill="#B8762A"><circle cx="92" cy="92" r="11"/><circle cx="150" cy="80" r="8"/><circle cx="214" cy="104" r="13"/><circle cx="120" cy="140" r="9"/><circle cx="190" cy="156" r="10"/><circle cx="232" cy="150" r="6"/></g><g fill="#4C6B48"><circle cx="170" cy="118" r="4"/><circle cx="104" cy="118" r="3"/><circle cx="210" cy="130" r="3"/></g></symbol>
<symbol id="ill-cookies" viewBox="0 0 320 240"><rect width="320" height="240" fill="#F3E8D2"/><rect x="-10" y="170" width="340" height="80" fill="#2F4B73"/><g fill="#C88A45"><circle cx="100" cy="110" r="58"/><circle cx="214" cy="96" r="50"/><circle cx="182" cy="182" r="46"/></g><g fill="#4A2E20"><circle cx="82" cy="94" r="7"/><circle cx="118" cy="122" r="6"/><circle cx="96" cy="140" r="5"/><circle cx="206" cy="80" r="6"/><circle cx="228" cy="108" r="7"/><circle cx="170" cy="176" r="6"/><circle cx="196" cy="196" r="5"/></g></symbol>
<symbol id="ill-fiche" viewBox="0 0 120 150"><rect width="120" height="150" fill="#FFF8E6"/><g fill="none" stroke="#2F4B73" stroke-width="2.6" stroke-linecap="round"><path d="M14 22c10-6 20 4 30-2s18 2 26-2"/><path d="M14 46c8-3 16 3 24-1s14 2 22 0 12 2 20 0"/><path d="M14 62c10-3 18 3 28-1s16 2 24-1"/><path d="M14 78c8-3 18 3 26-1s18 2 30-1"/><path d="M14 102c10-3 16 3 26-1s14 2 24 0"/><path d="M14 118c8-3 18 3 30-1s12 2 20 0"/></g></symbol>
<symbol id="c-tout" viewBox="0 0 24 24"><rect x="4" y="4" width="7" height="7" rx="2"/><rect x="13" y="4" width="7" height="7" rx="3.5"/><rect x="4" y="13" width="7" height="7" rx="3.5"/><rect x="13" y="13" width="7" height="7" rx="2"/></symbol>
<symbol id="c-plat" viewBox="0 0 24 24"><path d="M3 11h18v1.5a7.5 7.5 0 0 1-7.5 7.5h-3A7.5 7.5 0 0 1 3 12.5z"/><rect x="9" y="7" width="6" height="2.5" rx="1.25"/><rect x="1" y="11" width="22" height="2" rx="1"/></symbol>
<symbol id="c-entree" viewBox="0 0 24 24"><path d="M5 19C5 10 10 4 20 4c0 10-6 15-13 15h-2zM6.5 18.5l7-7" /><path d="M6 19.5l8-8" stroke="#fff" stroke-width="1.6" stroke-linecap="round" opacity=".7"/></symbol>
<symbol id="c-dessert" viewBox="0 0 24 24"><path d="M5 12h14l-2 9H7z"/><path d="M4.5 12a7.5 6 0 0 1 15 0z"/><circle cx="12" cy="4.5" r="2"/></symbol>
<symbol id="c-apero" viewBox="0 0 24 24"><path d="M5 3h14l-7 9z"/><rect x="11" y="11" width="2" height="8"/><rect x="7" y="19" width="10" height="2.2" rx="1.1"/></symbol>
<symbol id="c-brunch" viewBox="0 0 24 24"><circle cx="12" cy="12" r="9"/><circle cx="12" cy="12" r="4" fill="#fff" opacity=".85"/></symbol>
<symbol id="g-pate" viewBox="0 0 40 40"><rect x="5" y="10" width="30" height="22" rx="5" fill="#E9B85E"/><rect x="5" y="10" width="30" height="7" rx="3.5" fill="#F3D28A"/><path d="M9 22h22M9 27h22" stroke="#C98A3A" stroke-width="2" stroke-linecap="round"/></symbol>
<symbol id="g-pomme" viewBox="0 0 40 40"><path d="M20 13c-4-3-13-2-13 9 0 7 5 13 9 13 2 0 3-1 4-1s2 1 4 1c4 0 9-6 9-13 0-11-9-12-13-9z" fill="#C7381F"/><path d="M20 13c0-4 1-6 3-8" stroke="#5B4A3F" stroke-width="2.5" stroke-linecap="round" fill="none"/><path d="M22 9c3-4 8-4 9-2-2 3-6 4-9 2z" fill="#4C6B48"/><ellipse cx="13" cy="20" rx="2" ry="4" fill="#fff" opacity=".35"/></symbol>
<symbol id="g-creme" viewBox="0 0 40 40"><path d="M8 17h24l-2.5 16a3 3 0 0 1-3 2.5h-13a3 3 0 0 1-3-2.5z" fill="#2F4B73"/><path d="M7 17c0-5 5-9 13-9s13 4 13 9z" fill="#FFFFFF"/><path d="M14 12c3-3 9-3 12 0" stroke="#DCE8F5" stroke-width="2.5" stroke-linecap="round" fill="none"/><rect x="12" y="22" width="16" height="5" rx="2.5" fill="#fff" opacity=".25"/></symbol>
<symbol id="g-sucre" viewBox="0 0 40 40"><rect x="6" y="16" width="15" height="15" rx="3" fill="#FFFFFF"/><rect x="19" y="10" width="15" height="15" rx="3" fill="#FFFFFF"/><rect x="17" y="22" width="15" height="12" rx="3" fill="#F3EDE4"/><g fill="#74395A" opacity=".35"><circle cx="11" cy="22" r="1.3"/><circle cx="25" cy="15" r="1.3"/><circle cx="28" cy="20" r="1.3"/><circle cx="23" cy="28" r="1.3"/></g></symbol>
<symbol id="g-beurre" viewBox="0 0 40 40"><path d="M6 20l8-7h20v12l-8 7H6z" fill="#F2D27A"/><path d="M6 20l8-7h20l-8 7z" fill="#F8E3A6"/><path d="M6 24h20v8H6z" fill="#FFFFFF"/><path d="M26 24l8-7v8l-8 7z" fill="#E9E2D6"/></symbol>
<symbol id="g-cannelle" viewBox="0 0 40 40"><g transform="rotate(-35 20 20)"><rect x="5" y="14" width="30" height="7" rx="3.5" fill="#8A4A22"/><rect x="5" y="21" width="30" height="7" rx="3.5" fill="#A65F31"/><circle cx="8.5" cy="17.5" r="2" fill="#5E2F14"/><circle cx="8.5" cy="24.5" r="2" fill="#5E2F14"/></g></symbol>
<symbol id="i-cart" viewBox="0 0 24 24"><path d="M3 4h2.5l2.2 11h10.6L20.5 7.5H7"/><circle cx="9.5" cy="19" r="1.4"/><circle cx="17" cy="19" r="1.4"/></symbol>
<symbol id="p-tomate" viewBox="0 0 34 34"><circle cx="17" cy="18" r="14" fill="#C7381F"/><path d="M13 6c3 0 4 2 4 4 0-2 2-4 5-4" stroke="#4C6B48" stroke-width="3" fill="none" stroke-linecap="round"/></symbol>
<symbol id="p-feuille" viewBox="0 0 30 30"><path d="M4 26C4 13 11 4 26 4c0 15-9 22-20 22z" fill="#4C6B48"/></symbol>
<symbol id="p-carotte" viewBox="0 0 24 40"><path d="M4 8h16L13 38h-2z" fill="#E2702F"/><path d="M8 2l4 6 4-6" stroke="#4C6B48" stroke-width="3" fill="none" stroke-linecap="round"/></symbol>
<symbol id="p-fromage" viewBox="0 0 30 30"><rect x="3" y="3" width="24" height="24" rx="7" fill="#F2D27A"/><circle cx="11" cy="12" r="2.5" fill="#E5B84C"/><circle cx="19" cy="18" r="3" fill="#E5B84C"/></symbol>
<symbol id="ill-marmite" viewBox="0 0 180 120"><rect x="0" y="22" width="180" height="16" rx="8" fill="#2A1E19"/><path d="M14 38h152v34a42 42 0 0 1-42 42H56a42 42 0 0 1-42-42z" fill="#C7381F"/><rect x="34" y="60" width="112" height="10" rx="5" fill="#fff" opacity=".2"/><rect x="72" y="8" width="36" height="12" rx="6" fill="#2A1E19"/></symbol>
<symbol id="ill-vide" viewBox="0 0 220 160"><circle cx="110" cy="84" r="70" fill="#DCE6D4"/><circle cx="110" cy="84" r="48" fill="#FFFFFF"/><circle cx="110" cy="84" r="30" fill="#EEE8DF"/><rect x="22" y="40" width="10" height="90" rx="5" fill="#4C6B48"/><rect x="188" y="40" width="10" height="90" rx="5" fill="#4C6B48"/><circle cx="110" cy="84" r="16" fill="#C7381F"/><path d="M110 77v14M103 84h14" stroke="#fff" stroke-width="3.5" stroke-linecap="round"/></symbol>
<symbol id="g-autre" viewBox="0 0 40 40"><path d="M6 18h28a14 12 0 0 1-28 0z" fill="#C7381F"/><rect x="4" y="16" width="32" height="4" rx="2" fill="#9C2A16"/><circle cx="14" cy="13" r="4" fill="#4C6B48"/><circle cx="21" cy="11" r="4.5" fill="#E9B85E"/><circle cx="27" cy="13.5" r="3.5" fill="#74395A"/></symbol>
</defs>
</svg>
